<svg enable-background="new 0 0 150 170.1" viewBox="0 0 150 170.1" xmlns="http://www.w3.org/2000/svg"><path d="m150 170.1-75-17.2-75 17.2v-170.1h150z" fill="#00853e"/><g fill="#fff"><path d="m143.5 6.3v155.3l-68.2-15.8-.3-.1-.3.1-68.2 15.8v-155.3zm1.5-1.5h-140v158.7l70-16.2 70 16.2z" opacity=".75"/><path d="m104.3 72.7-3.6 9.8h5.5l1.3-3.8h5.4v27h-3.1l-2.2 6.1h15l2.3-6.1h-4.2v-27h6.3l-.1 3.8h3.8l3.6-9.9z"/><path d="m43.9 72.7-2.3 6.1h3.8v17.7c0 3.3-.6 5.1-2.2 6.7-1.2 1.3-3.4 2.1-5.6 2.1-2.6 0-5-.9-6.5-2.4s-2.2-3.9-2.2-7.4v-22.7h-11.1l-2.2 6.1h4.7v16.9c0 15.8 12.3 17.1 16.1 17.1 9.8 0 16.1-6.3 16.1-16.1v-17.8h2.8l2.2-6.1h-13.6z"/><path d="m97.3 78.7v33.1h-4.6s-21.5-22.6-22.9-24.2v18.1h4.2l-2.2 6.1h-13.9l2.2-6.1h2.4v-27h-5.1l2.2-6.1h8.5s16.4 17.1 22.1 23.2c0-1.9 0-17.1 0-17.1h-4.1l2.2-6.1h14.2l-2.2 6.1z"/><path d="m134.3 81.3c0 .7-.6 1.2-1.2 1.2-.7 0-1.2-.6-1.2-1.2 0-.7.6-1.2 1.2-1.2.6-.1 1.2.5 1.2 1.2zm-2.4 0c0 .6.5 1.1 1.1 1.1s1.1-.5 1.1-1.1-.5-1.1-1.1-1.1c-.6-.1-1.1.4-1.1 1.1zm.7-.8h.5c.3 0 .5.1.5.4 0 .2-.2.4-.4.4l.4.7h-.1l-.4-.7h-.4v.7h-.1zm.1.7h.3c.2 0 .5 0 .5-.3 0-.2-.2-.3-.4-.3h-.4z" stroke="#fff" stroke-miterlimit="10" stroke-width=".05423"/><path d="m83.6 45.8-24.2-22.6c-1.1-1.1-.7-2.6-.7-2.6l-2 4.4c-.6 1.3.3 2.2.9 2.7s19.4 15.7 19.4 15.7v.7l-18.7-14.4c-.9-.7-.8-1.8-.8-1.8l-1.3 2.8c-.7 1.6 1 2.6 1.7 3s19.3 13.4 19.3 13.4l.1.8s-18-12-18.7-12.4c-.8-.4-.8-1.7-.8-1.7l-1.3 2.8c-.6 1.1 1 1.9 1.7 2.4.4.2 10.5 6.3 18.8 11.2h-10.9c-1.6 0-2.1-.4-2.1-.4l1.5 1.3c.2.2.9 1 1.9 1h4l.8.3-3.5.2c-.7 0-.9.1-1.8-.4l1.6 1.5c.4.3.8.8 1.6.7s5.1-.8 5.1-.8l.7.3-4.6 1c-1 .2-1.8-.3-1.8-.3s.9.9 1.5 1.5 1.1.9 3 .4c.8-.2 4.5-1.3 4.5-1.3l2.4 1c2.5 3.4 5.4 5.1 5.4 5.1-.6.7-.1 1.5-.1 1.5.4-1 1.6-1.6 2.5-1.5.8.1.6 1 .6 1 .4-.6.8-1.2.3-1.8-.7-.8-2.1-.1-2.1-.1l-1.5-2.6 1.9-1.1c1-6.4-4.3-10.9-4.3-10.9z"/><path d="m82.4 36.4c-.3-.3-11.6-13-11.6-13-1-1.1-.7-1.9-.6-2l-1.3 2.9c-.3.8.2 1.3.7 1.8.4.6 12.1 12.9 12.1 12.9v.7l-11.2-11.2c-.9-.9-.7-1.6-.6-1.7l-1.2 2.7c-.2.8.6 1.3 1.2 2 .6.6 13 12.2 14 13.2 2.1 2 3.2 4.6 3.2 4.6 1.3-6.5-3.5-11.4-4.7-12.9z"/><path d="m91.9 56.4c-.1-.8-1-1.9-1-1.9s1.8 1.7 1.9 1.8c0 0 .6-1.2-.6-2.4-1.7-1.6-5-4.6-5-4.6.2.8 1.6 3.1.9 7.5l1.7.3.2.3s1.9.2 2.2.6c0 0 .7.4 0 1.1 0 0 1.1-.2 1.7-.8 0 0 .6-.4-.1-1.1l-1-.9c-.3-.2-.9.1-.9.1z"/><path d="m88.6 48.4-.2.1v.7h-.1v-.7h-.2v-.1z"/><path d="m88.8 48.4.3.7.2-.7h.1v.8h-.1v-.4s0 0 0-.1v-.1l-.2.7h-.1l-.2-.7v.1.1.4h-.1z"/></g></svg>